<svg width="30" height="30" viewBox="0 0 30 30" fill="none" xmlns="http://www.w3.org/2000/svg">
<path d="M5.625 5.625H28.125L25.3125 17.8125H8.4375M25.3125 21.5625H9.375L4.6875 1.875H1.875" stroke="white" stroke-width="2" stroke-linecap="round" stroke-linejoin="round"/>
<path d="M23.4375 27.1875C24.473 27.1875 25.3125 26.348 25.3125 25.3125C25.3125 24.277 24.473 23.4375 23.4375 23.4375C22.402 23.4375 21.5625 24.277 21.5625 25.3125C21.5625 26.348 22.402 27.1875 23.4375 27.1875Z" stroke="white" stroke-width="2" stroke-linecap="round" stroke-linejoin="round"/>
<path d="M11.25 27.1875C12.2855 27.1875 13.125 26.348 13.125 25.3125C13.125 24.277 12.2855 23.4375 11.25 23.4375C10.2145 23.4375 9.375 24.277 9.375 25.3125C9.375 26.348 10.2145 27.1875 11.25 27.1875Z" stroke="white" stroke-width="2" stroke-linecap="round" stroke-linejoin="round"/>
</svg>
