<svg width="30" height="30" viewBox="0 0 30 30" fill="none" xmlns="http://www.w3.org/2000/svg">
<path d="M15 15C16.4918 15 17.9226 14.4074 18.9775 13.3525C20.0324 12.2976 20.625 10.8668 20.625 9.375C20.625 7.88316 20.0324 6.45242 18.9775 5.39752C17.9226 4.34263 16.4918 3.75 15 3.75C13.5082 3.75 12.0774 4.34263 11.0225 5.39752C9.96763 6.45242 9.375 7.88316 9.375 9.375C9.375 10.8668 9.96763 12.2976 11.0225 13.3525C12.0774 14.4074 13.5082 15 15 15ZM15 16.875C13.0109 16.875 11.1032 16.0848 9.6967 14.6783C8.29018 13.2718 7.5 11.3641 7.5 9.375C7.5 7.38588 8.29018 5.47822 9.6967 4.0717C11.1032 2.66518 13.0109 1.875 15 1.875C16.9891 1.875 18.8968 2.66518 20.3033 4.0717C21.7098 5.47822 22.5 7.38588 22.5 9.375C22.5 11.3641 21.7098 13.2718 20.3033 14.6783C18.8968 16.0848 16.9891 16.875 15 16.875ZM24.375 26.25V23.4375C24.375 22.6916 24.0787 21.9762 23.5512 21.4488C23.0238 20.9213 22.3084 20.625 21.5625 20.625H8.4375C7.69158 20.625 6.97621 20.9213 6.44876 21.4488C5.92132 21.9762 5.625 22.6916 5.625 23.4375V26.25C5.625 26.4986 5.52623 26.7371 5.35041 26.9129C5.1746 27.0887 4.93614 27.1875 4.6875 27.1875C4.43886 27.1875 4.2004 27.0887 4.02459 26.9129C3.84877 26.7371 3.75 26.4986 3.75 26.25V23.4375C3.75 22.1943 4.24386 21.002 5.12294 20.1229C6.00201 19.2439 7.1943 18.75 8.4375 18.75H21.5625C22.8057 18.75 23.998 19.2439 24.8771 20.1229C25.7561 21.002 26.25 22.1943 26.25 23.4375V26.25C26.25 26.4986 26.1512 26.7371 25.9754 26.9129C25.7996 27.0887 25.5611 27.1875 25.3125 27.1875C25.0639 27.1875 24.8254 27.0887 24.6496 26.9129C24.4738 26.7371 24.375 26.4986 24.375 26.25Z" fill="white"/>
</svg>
